<svg preserveAspectRatio="none" xmlns="http://www.w3.org/2000/svg" xmlns:xlink="http://www.w3.org/1999/xlink" width="199" height="108.94" viewBox="0 0 199 108.94">
  <defs>
    <linearGradient id="linear-gradient" x1="8.188" y1="1.693" x2="9.163" y2="-0.311" gradientUnits="objectBoundingBox">
      <stop offset="0" stop-color="#c6dad4"/>
      <stop offset="1" stop-color="#9dbdb0"/>
    </linearGradient>
    <linearGradient id="linear-gradient-2" x1="5.776" y1="0.958" x2="5.527" y2="2.993" xlink:href="#linear-gradient"/>
    <linearGradient id="linear-gradient-3" x1="14.015" y1="1.029" x2="15.588" y2="0.315" xlink:href="#linear-gradient"/>
    <linearGradient id="linear-gradient-4" x1="5.906" y1="0.04" x2="5.746" y2="1.072" gradientUnits="objectBoundingBox">
      <stop offset="0" stop-opacity="0"/>
      <stop offset="1"/>
    </linearGradient>
    <linearGradient id="linear-gradient-5" x1="14.815" y1="-0.168" x2="14.07" y2="1.565" gradientUnits="objectBoundingBox">
      <stop offset="0" stop-color="#3e526d"/>
      <stop offset="1" stop-color="#39374f"/>
    </linearGradient>
    <linearGradient id="linear-gradient-6" x1="8.271" y1="-0.352" x2="7.859" y2="1.73" xlink:href="#linear-gradient-5"/>
    <linearGradient id="linear-gradient-7" x1="5.82" y1="-1.688" x2="5.543" y2="3.312" xlink:href="#linear-gradient-5"/>
    <linearGradient id="linear-gradient-8" x1="12.513" y1="2.32" x2="12.691" y2="4.56" xlink:href="#linear-gradient"/>
    <linearGradient id="linear-gradient-9" x1="9.106" y1="1.101" x2="10.039" y2="-0.326" xlink:href="#linear-gradient"/>
    <linearGradient id="linear-gradient-10" x1="6.279" y1="0.958" x2="6.029" y2="2.999" xlink:href="#linear-gradient"/>
    <linearGradient id="linear-gradient-11" x1="13.252" y1="1.008" x2="11.803" y2="-0.431" xlink:href="#linear-gradient-4"/>
    <linearGradient id="linear-gradient-12" x1="15.325" y1="1.06" x2="17.502" y2="0.205" xlink:href="#linear-gradient"/>
    <linearGradient id="linear-gradient-13" x1="6.395" y1="0.04" x2="6.235" y2="1.068" xlink:href="#linear-gradient-4"/>
    <linearGradient id="linear-gradient-14" x1="16.16" y1="-0.17" x2="15.413" y2="1.566" xlink:href="#linear-gradient-5"/>
    <linearGradient id="linear-gradient-15" x1="8.994" y1="-0.349" x2="8.582" y2="1.729" xlink:href="#linear-gradient-5"/>
    <linearGradient id="linear-gradient-16" x1="6.305" y1="-1.701" x2="6.028" y2="3.323" xlink:href="#linear-gradient-5"/>
    <linearGradient id="linear-gradient-17" x1="23.722" y1="1.488" x2="23.307" y2="9.061" xlink:href="#linear-gradient"/>
    <linearGradient id="linear-gradient-18" y1="0.499" x2="1" y2="0.499" gradientUnits="objectBoundingBox">
      <stop offset="0.01" stop-color="#ebf8fc"/>
      <stop offset="0.74" stop-color="#fff"/>
    </linearGradient>
    <linearGradient id="linear-gradient-19" x1="0" y1="0.5" y2="0.5" xlink:href="#linear-gradient-18"/>
    <linearGradient id="linear-gradient-20" x1="1.611" y1="0.094" x2="1.582" y2="3.53" xlink:href="#linear-gradient-5"/>
    <linearGradient id="linear-gradient-21" x1="2.742" y1="0.003" x2="2.684" y2="4.023" xlink:href="#linear-gradient-5"/>
    <linearGradient id="linear-gradient-22" x1="0.675" y1="1.432" x2="1.774" y2="-0.706" xlink:href="#linear-gradient"/>
    <linearGradient id="linear-gradient-23" x1="0.939" y1="0.673" x2="0.711" y2="6.907" xlink:href="#linear-gradient"/>
    <linearGradient id="linear-gradient-24" x1="1.308" y1="-0.616" x2="1.821" y2="1.574" xlink:href="#linear-gradient-4"/>
    <linearGradient id="linear-gradient-25" x1="1.107" y1="0.88" x2="2.581" y2="0.184" xlink:href="#linear-gradient"/>
    <linearGradient id="linear-gradient-26" x1="1.079" y1="-0.576" x2="0.796" y2="1.469" xlink:href="#linear-gradient-4"/>
    <linearGradient id="linear-gradient-27" x1="4.327" y1="0.055" x2="4.228" y2="1.413" xlink:href="#linear-gradient-5"/>
    <linearGradient id="linear-gradient-28" x1="0.436" y1="0.503" x2="1.435" y2="0.503" xlink:href="#linear-gradient-5"/>
    <linearGradient id="linear-gradient-29" x1="2.158" y1="1.653" x2="0.836" y2="10.274" xlink:href="#linear-gradient"/>
    <linearGradient id="linear-gradient-30" x1="1.24" y1="1.725" x2="0.635" y2="9.011" xlink:href="#linear-gradient"/>
    <linearGradient id="linear-gradient-31" x1="1.609" y1="0.094" x2="1.58" y2="3.52" xlink:href="#linear-gradient-5"/>
    <linearGradient id="linear-gradient-32" x1="2.735" y1="0.007" x2="2.677" y2="4.01" xlink:href="#linear-gradient-5"/>
    <linearGradient id="linear-gradient-33" x1="0.675" y1="1.433" x2="1.774" y2="-0.707" xlink:href="#linear-gradient"/>
    <linearGradient id="linear-gradient-34" x1="0.939" y1="0.673" x2="0.711" y2="6.907" xlink:href="#linear-gradient"/>
    <linearGradient id="linear-gradient-35" x1="1.308" y1="-0.617" x2="1.821" y2="1.574" xlink:href="#linear-gradient-4"/>
    <linearGradient id="linear-gradient-36" x1="1.106" y1="0.88" x2="2.582" y2="0.183" xlink:href="#linear-gradient"/>
    <linearGradient id="linear-gradient-37" x1="1.078" y1="-0.577" x2="0.795" y2="1.471" xlink:href="#linear-gradient-4"/>
    <linearGradient id="linear-gradient-38" x1="4.329" y1="0.053" x2="4.229" y2="1.414" xlink:href="#linear-gradient-5"/>
    <linearGradient id="linear-gradient-39" x1="0.435" y1="0.503" x2="1.433" y2="0.503" xlink:href="#linear-gradient-5"/>
    <linearGradient id="linear-gradient-40" x1="2.157" y1="1.653" x2="0.835" y2="10.274" xlink:href="#linear-gradient"/>
    <linearGradient id="linear-gradient-41" x1="1.24" y1="1.723" x2="0.635" y2="8.998" xlink:href="#linear-gradient"/>
  </defs>
  <g id="collector" transform="translate(-35.992 -0.05)" style="isolation: isolate">
    <g id="Layer_2" data-name="Layer 2" transform="translate(-0.008 0.05)">
      <g id="Layer_1" data-name="Layer 1">
        <path id="Path_2723" data-name="Path 2723" d="M235,200.27v9.958c-.245.1,16.78,1.705,17.222,1.705v-9.968C251.763,201.966,235.233,200.409,235,200.27Z" transform="translate(-110.103 -106.088)" fill="url(#linear-gradient)"/>
        <path id="Path_2724" data-name="Path 2724" d="M235,195.728h0c.259.139,16.789,1.7,17.222,1.7a65.352,65.352,0,0,0,7.97-4.65v-.053s-16.251-1.278-16.544-1.177S235.221,195.627,235,195.728Z" transform="translate(-110.106 -101.55)" fill="url(#linear-gradient-2)"/>
        <path id="Path_2725" data-name="Path 2725" d="M270.71,198.86V208.8c.442,0,8.421-4.665,7.974-4.7V194.21A67.546,67.546,0,0,1,270.71,198.86Z" transform="translate(-128.662 -102.939)" fill="url(#linear-gradient-3)"/>
        <path id="Path_2726" data-name="Path 2726" d="M240.843,205.133a1.158,1.158,0,0,0,1.259-1.153v-3.906l2.157.216v4.088a1.153,1.153,0,0,0,1.057,1.148l6.759.034h.043l2.719-1.513a1,1,0,0,0,.447-.836l.048-3.843c.576-.331,1.172-.682,1.744-1.018v3.968a.3.3,0,0,0,.437.259l2.58-1.441v2.075l-2.882,1.633a.293.293,0,0,0-.149.255v3.171c-.6.36-1.235.73-1.845,1.081v-1.326c0-.673-.721-1.653-1.307-1.316l-1.821,1.042h-.043l-6.524.038a1.153,1.153,0,0,0-1.249,1.153v1.283l-2.157-.207v-1.441a1.153,1.153,0,0,0-1.062-1.153l-6.144-1.076v-2.311Z" transform="translate(-110.059 -105.09)" opacity="0.5" fill="url(#linear-gradient-4)" style="mix-blend-mode: overlay;isolation: isolate"/>
        <path id="Path_2727" data-name="Path 2727" d="M251.54,206.865a.346.346,0,0,0,.346-.346v-9.7l8.685-4.367a.351.351,0,0,0,.154-.48.341.341,0,0,0-.48-.149l-8.877,4.463a.341.341,0,0,0-.187.307V206.5a.346.346,0,0,0,.36.36Z" transform="translate(-118.513 -101.672)" fill="url(#linear-gradient-5)"/>
        <path id="Path_2728" data-name="Path 2728" d="M261.436,207.205a.346.346,0,0,0,.346-.346V196.738a.346.346,0,0,0-.307-.341l-16.655-1.749a.343.343,0,0,0-.072.682l16.333,1.72v9.833A.341.341,0,0,0,261.436,207.205Z" transform="translate(-115.012 -103.165)" fill="url(#linear-gradient-6)"/>
        <path id="Path_2729" data-name="Path 2729" d="M251.846,210.212a.355.355,0,0,0,.173-.043l7.893-4.53a.341.341,0,0,0,.13-.48.351.351,0,0,0-.48-.13l-7.8,4.477-17.15-1.537a.346.346,0,0,0-.062.687l17.26,1.547Z" transform="translate(-109.721 -108.536)" fill="url(#linear-gradient-7)"/>
        <path id="Path_2730" data-name="Path 2730" d="M253.61,209.21c.221,0,6.331,3.6,6.629,3.574s4.42-3.574,4.42-3.574l-2.815,1.273Z" transform="translate(-119.776 -110.733)" fill="url(#linear-gradient-8)"/>
        <path id="Path_2731" data-name="Path 2731" d="M221.887,180.87V190.8c-.245.1,16.78,1.7,17.222,1.7v-9.939C238.672,182.566,222.147,181.009,221.887,180.87Z" transform="translate(-103.291 -96.007)" fill="url(#linear-gradient-9)"/>
        <path id="Path_2732" data-name="Path 2732" d="M221.89,176.338h0c.2.106,9.464,1,14.32,1.441,1.648.149,2.791.25,2.882.25a67.6,67.6,0,0,0,7.974-4.655v-.048s-6.389-.49-11.193-.836c-2.882-.207-5.217-.365-5.327-.327C230.239,172.26,222.14,176.237,221.89,176.338Z" transform="translate(-103.294 -91.48)" fill="url(#linear-gradient-10)"/>
        <path id="Path_2733" data-name="Path 2733" d="M251.336,178.153c1.648.149,2.791.25,2.882.25a67.6,67.6,0,0,0,7.974-4.655V173.7s-6.389-.5-11.193-.85A5.336,5.336,0,0,1,251.336,178.153Z" transform="translate(-118.42 -91.84)" opacity="0.5" fill="url(#linear-gradient-11)" style="mix-blend-mode: overlay;isolation: isolate"/>
        <path id="Path_2734" data-name="Path 2734" d="M257.74,179.4v9.944c.442,0,8.416-4.665,7.97-4.7v-9.9A67.213,67.213,0,0,1,257.74,179.4Z" transform="translate(-121.922 -92.827)" fill="url(#linear-gradient-12)"/>
        <path id="Path_2735" data-name="Path 2735" d="M227.776,185.668a1.158,1.158,0,0,0,1.259-1.153V180.61l2.162.216v4.088a1.153,1.153,0,0,0,1.052,1.153l6.759.034h.038l2.724-1.513a1.014,1.014,0,0,0,.447-.836l.043-3.843c.581-.331,1.177-.682,1.744-1.018v3.968a.293.293,0,0,0,.437.259l2.58-1.441v2.07l-2.882,1.638a.288.288,0,0,0-.149.255v3.185c-.6.355-1.235.725-1.845,1.076v-1.326c0-.673-.721-1.648-1.3-1.316l-1.825,1.042-.038.024-6.576.038a1.158,1.158,0,0,0-1.249,1.153V190.8l-2.162-.211v-1.441A1.158,1.158,0,0,0,227.93,188l-6.13-1.081v-2.311Z" transform="translate(-103.247 -94.978)" opacity="0.5" fill="url(#linear-gradient-13)" style="mix-blend-mode: overlay;isolation: isolate"/>
        <path id="Path_2736" data-name="Path 2736" d="M238.5,187.487a.346.346,0,0,0,.346-.341v-9.7l8.685-4.371a.342.342,0,0,0-.307-.61l-8.877,4.463a.346.346,0,0,0-.192.307v9.915a.341.341,0,0,0,.346.341Z" transform="translate(-111.743 -91.618)" fill="url(#linear-gradient-14)"/>
        <path id="Path_2737" data-name="Path 2737" d="M248.371,187.779a.341.341,0,0,0,.341-.346V177.288a.341.341,0,0,0-.307-.341L231.75,175.2a.343.343,0,0,0-.072.682l16.333,1.72v9.833a.346.346,0,0,0,.36.346Z" transform="translate(-108.22 -93.059)" fill="url(#linear-gradient-15)"/>
        <path id="Path_2738" data-name="Path 2738" d="M238.8,190.84a.336.336,0,0,0,.168-.043l7.9-4.506a.346.346,0,1,0-.341-.6l-7.8,4.444L221.57,188.6a.346.346,0,0,0-.062.687l17.255,1.547Z" transform="translate(-102.945 -98.483)" fill="url(#linear-gradient-16)"/>
        <path id="Path_2739" data-name="Path 2739" d="M224.838,189.528l-7.268.754,2.07-1.182Z" transform="translate(-101.049 -100.283)" fill="url(#linear-gradient-17)"/>
        <path id="Path_2653" data-name="Path 2653" d="M66.5,104.436a6.49,6.49,0,0,1,1.725.221,14.451,14.451,0,0,0,2.536.365c.432,0,1.508-1.619,1.657-2.921.034-.322,0-.7-.447-.7-.572,0-1.922.034-2.815.043-.216,0-.24-.082-.125-.264.226-.375.567-1.057.192-1.249-.48-.058-.48.4-1.259,1.038a3.449,3.449,0,0,1-1.393.24" transform="translate(1.449 -51.949)" fill="#b2765e"/>
        <path id="Path_2654" data-name="Path 2654" d="M40.936,91.585l-.1,5.284s-12.3.855-15.934-.812c-4.323-1.989-8.431-6.307-8.123-9.67.2-2.2,4.016-3.017,4.016-3.017s5.923,7.686,9.079,8.858S40.936,91.585,40.936,91.585Z" transform="translate(27.292 -43.344)" fill="#76cacc"/>
        <path id="Path_2655" data-name="Path 2655" d="M115.225,90.205a2.257,2.257,0,0,0,2.479-.841,6.629,6.629,0,0,0,1.081-2.565c.12-.48.24-.927.365-1.388a.672.672,0,0,0,0-.538.562.562,0,0,0-.6-.125c-1.09.283-1.614,1.494-1.984,2.556-.4-1.086-.908-2.282-1.979-2.724a2.162,2.162,0,0,0-.183,2.147c-.312-.437-1.393-1.922-2.046-1.6s-.327,1.345-.12,1.792A8.11,8.11,0,0,0,115.225,90.205Z" transform="translate(-22.18 -43.973)" fill="#051a2d"/>
        <path id="Path_2656" data-name="Path 2656" d="M118.218,109.752a31.974,31.974,0,0,0-2.964-8.858,19.042,19.042,0,0,0-3.5-4.689c-1.571-1.48-3.464-2.464-5.5-1.96-4.323,1.081-6.754,5.765-8.488,9.44a19.767,19.767,0,0,0-1.835,5.284,10.154,10.154,0,0,0-.12,1.792,7.268,7.268,0,0,0,1.009,3.617,6.125,6.125,0,0,0,4.251,2.786c1.705.25,3.454-.231,5.159,0a18.5,18.5,0,0,0,3.363.543c.961-.053,1.893-.48,2.882-.572,1.1-.091,2.215.269,3.281,0a3.884,3.884,0,0,0,2.681-3.094A10.972,10.972,0,0,0,118.218,109.752Z" transform="translate(-13.783 -48.926)" fill="#051a2d"/>
        <path id="Path_2657" data-name="Path 2657" d="M119.155,93.764a4.77,4.77,0,0,0-1.441-.125c-.48,0-.961,0-1.441.038a14.969,14.969,0,0,0-2.95.48c-.221.058-.154.4.072.346a18.059,18.059,0,0,1,2.037-.36,5.568,5.568,0,0,0-1.787,2.527,1.542,1.542,0,0,0-.12.9.581.581,0,0,0,.605.418c.644-.048,1-.764,1.225-1.278a7.782,7.782,0,0,0,.452-1.441c.091.38.192.759.307,1.134a1.753,1.753,0,0,0,.845,1.167.961.961,0,0,0,1.206-.562,1.811,1.811,0,0,0-.346-1.691,5.669,5.669,0,0,0-1.119-1.249h.99a5.023,5.023,0,0,1,.749.038,3.363,3.363,0,0,0,.692.034.2.2,0,0,0,.024-.38Zm-4.136,2.69a2.671,2.671,0,0,1-.533.937.634.634,0,0,1-.4.216c-.183,0-.2-.2-.178-.341a4.228,4.228,0,0,1,.8-1.806,5.53,5.53,0,0,1,.788-.9A10.267,10.267,0,0,1,115.019,96.454Zm2.4-.9c.279.418.673,1.244.067,1.59-.48.283-.836-.437-.961-.8-.231-.677-.375-1.4-.557-2.094a.48.48,0,0,0,0-.048l.091-.067a.129.129,0,0,0,.034.038,5.284,5.284,0,0,1,1.326,1.379Z" transform="translate(-22.81 -48.675)" fill="#ebebeb"/>
        <path id="Path_2658" data-name="Path 2658" d="M33.045,63.777a5.928,5.928,0,0,1-.178-1.475c-3.877.524-6.245-4.9-7.763.4-.533,1.873-2.753,7.782-2.834,10.568-.091,2.935,15.281,6.279,14.436,2.882-.8-3.209-3.661-12.341-3.661-12.341" transform="translate(24.433 -31.389)" fill="#b2765e"/>
        <path id="Path_2659" data-name="Path 2659" d="M36.582,66.34s-4.8.351-6.048.235L29.29,66.46a12.49,12.49,0,0,0,3.757.581,32.79,32.79,0,0,0,3.6-.331Z" transform="translate(20.784 -34.495)" fill="#a46854" opacity="0.61"/>
        <path id="Path_2660" data-name="Path 2660" d="M30.378,27.392a16.593,16.593,0,0,0-.24-2.469c-.74-4.323-1.071-6.615-4-8.8a18.327,18.327,0,0,0-11.212-3.238,20.277,20.277,0,0,0-5.034,1.72C7.223,15.944,4.37,18.226,3.75,21.93A15.992,15.992,0,0,0,3.9,28.1C4.985,32.82,8.42,36.659,14.17,38.129c4.064,1.038,8.551.759,12.01-1.441a10,10,0,0,0,4.011-6.845" transform="translate(34.175 -6.721)" fill="#b2765e"/>
        <path id="Path_2661" data-name="Path 2661" d="M27.983,9.8C30.183,9.6,30,5.762,26.9,7.011c1.239-.99,2.661-2.628,1.292-4.323C26.542.622,21.978,1.27,21.469,4.306c.091-.394.961-2.959-.48-3.747A2.9,2.9,0,0,0,16.5,3.369C16.53,3.485,3.527.924.135,12.694c-.961,4.323,3.122,15.415,5.9,16.021.961.2,1.922-1.441,1.922-1.441S4,17.214,6.039,16.224c1.643-.826,14.671.135,19.729-3.074,2.176,3.363.452.168,2.373,4.011C29.8,15.878,29.832,12.65,27.983,9.8Z" transform="translate(36.008 -0.05)" fill="#35201a"/>
        <path id="Path_2662" data-name="Path 2662" d="M13.195,45.209A1.922,1.922,0,1,1,11.509,43.1,1.922,1.922,0,0,1,13.195,45.209Z" transform="translate(31.139 -22.41)" fill="#b2765e"/>
        <path id="Path_2663" data-name="Path 2663" d="M13,45.036a.836.836,0,0,0-1.033.125c-.581.48-.615,1.1-.255,1.263.48.2.307-.4.773-.524s.7.211.961-.163S13,45.036,13,45.036Z" transform="translate(30.037 -23.361)" fill="#a46854"/>
        <path id="Path_2664" data-name="Path 2664" d="M28.383,41.616a2.834,2.834,0,1,0,3.276-2.3A2.834,2.834,0,0,0,28.383,41.616Z" transform="translate(21.278 -20.431)" fill="#a46854" opacity="0.61"/>
        <path id="Path_2665" data-name="Path 2665" d="M47.453,51.734c.605.9,2.046,1.292,2.484,0,.149-.437.831-.24.687.2A1.95,1.95,0,0,1,48.966,53.3a2.4,2.4,0,0,1-2.133-1.211c-.259-.38.365-.73.62-.351Z" transform="translate(11.701 -26.778)" fill="#a46854"/>
        <path id="Path_2666" data-name="Path 2666" d="M46.6,36.519c.029.581.389,1.038.8,1.014s.725-.514.692-1.1-.394-1.042-.807-1.018S46.564,35.933,46.6,36.519Z" transform="translate(11.793 -18.428)" fill="#3b3036"/>
        <path id="Path_2667" data-name="Path 2667" d="M43.542,39.3c.048.576.053,1.018.062,1.225a26.275,26.275,0,0,1-.99,6.437,5.143,5.143,0,0,1-5.332,3.079c-1.172-.163-4.256-.413-5.395-.74-1.922-1.124-3.175-2.618-3.247-3.8a21.6,21.6,0,0,1,1.273-6.725c.288-.255,5.284,1.249,9.046,1.129,1.739-.029,3.363.682,4.578-.586Z" transform="translate(21.126 -20.154)" fill="#fcd28d" fill-rule="evenodd"/>
        <path id="Path_2668" data-name="Path 2668" d="M12.177,41.73c2.536.442,6.082,1.206,8.69,1.408a.221.221,0,0,1,.3.144.274.274,0,0,1-.187.317h0a76.746,76.746,0,0,1-9.017-1.076c-.13-.038-.168-.48-.115-.624s-.072-.091.067-.058Z" transform="translate(29.861 -21.708)" fill="#fcd28d" fill-rule="evenodd"/>
        <path id="Path_2669" data-name="Path 2669" d="M14.3,51.42c2.623.125,4.857.115,7.48.034a.207.207,0,1,1,0,.413h0c-2.632.077-4.881.086-7.523-.038a.2.2,0,0,1-.192-.216h0a.207.207,0,0,1,.216-.192Z" transform="translate(28.694 -26.742)" fill="#fcd28d" fill-rule="evenodd"/>
        <path id="Path_2670" data-name="Path 2670" d="M59.184,206.61a5.327,5.327,0,0,0,2.44,1.441,11.328,11.328,0,0,0,2.882-.115.687.687,0,0,1,.24,1.321c-1.869.86-6.456,2.152-8.013,1.758-1.292-.36-.9-3.166-.9-3.166Z" transform="translate(7.022 -107.382)" fill="#493a54"/>
        <path id="Path_2671" data-name="Path 2671" d="M18.676,112.612S17.989,130.141,34.721,143a84.125,84.125,0,0,0,1.48,15.934s4.271-.644,4.6-1.729,2.805-14.474,1.263-18.956c-.855-2.493-4.91-21.785-13.9-26.32Z" transform="translate(26.302 -58.185)" fill="#140e40"/>
        <path id="Path_2672" data-name="Path 2672" d="M23.762,209.06a5.347,5.347,0,0,0,2.061,1.922,11.4,11.4,0,0,0,2.858.533.687.687,0,0,1-.058,1.345c-2.013.418-6.773.663-8.2-.062-1.182-.639-.173-3.286-.173-3.286Z" transform="translate(25.692 -108.655)" fill="#493a54"/>
        <path id="Path_2673" data-name="Path 2673" d="M16.867,119.188c-1.388,9.958,2.681,15.665,2.5,19.379-.432,9.017-1.388,16.89-1.388,20.844,0,0,3.478,1.629,5.938.375.644-1.23,6.581-17.726,6.793-20.354s1.148-21.915-5.765-27.512C24.986,111.92,17.741,112.857,16.867,119.188Z" transform="translate(27.39 -58.179)" fill="#140e40"/>
        <path id="Path_2674" data-name="Path 2674" d="M40.865,146.17l-1.331,15.843-3.324,8.3v1.6l3.958-9.622,1.278-15.406Z" transform="translate(17.189 -75.976)" fill="#4717b7"/>
        <path id="Path_2675" data-name="Path 2675" d="M26.694,139A7.776,7.776,0,0,1,23,141.5l.336.937A9.615,9.615,0,0,0,26.7,140.72l1.057-1.062Z" transform="translate(24.053 -72.251)" fill="#4717b7"/>
        <path id="Path_2676" data-name="Path 2676" d="M84.44,96.638l.495-6.778,4.53.932-.836,7.379Z" transform="translate(-7.872 -46.717)" fill="#051a2d"/>
        <path id="Path_2677" data-name="Path 2677" d="M76.127,94.806l-1.893-.346-1.922,1.4a1.057,1.057,0,0,0-.408.649l-1.753,9.608a1.177,1.177,0,0,0,.961,1.364l3.4.62a1.167,1.167,0,0,0,1.364-.961l1.758-9.608a1.057,1.057,0,0,0-.154-.749Z" transform="translate(-0.438 -49.107)" fill="#f4a6c0"/>
        <rect id="Rectangle_309" data-name="Rectangle 309" width="1.974" height="1.974" transform="translate(73.632 46.135) rotate(-79.65)" fill="#f4a6c0"/>
        <path id="Path_2678" data-name="Path 2678" d="M80.65,92.585l-2.277-.418a.235.235,0,0,1-.187-.274h0a.235.235,0,0,1,.274-.187l2.277.418a.235.235,0,0,1,.187.274h0A.24.24,0,0,1,80.65,92.585Z" transform="translate(-4.621 -47.674)" fill="#d88ba9"/>
        <path id="Path_2679" data-name="Path 2679" d="M78.924,100.8l-5.765-1.052a.307.307,0,0,1-.245-.36h0a.307.307,0,0,1,.355-.25l5.765,1.057a.3.3,0,0,1,.245.355h0A.307.307,0,0,1,78.924,100.8Z" transform="translate(-1.88 -51.534)" fill="#d88ba9"/>
        <path id="Path_2680" data-name="Path 2680" d="M78.489,103.2l-5.765-1.057a.307.307,0,0,1-.25-.355h0a.312.312,0,0,1,.36-.25l5.765,1.052a.312.312,0,0,1,.25.36h0A.312.312,0,0,1,78.489,103.2Z" transform="translate(-1.653 -52.781)" fill="#d88ba9"/>
        <path id="Path_2681" data-name="Path 2681" d="M78.043,105.567l-5.765-1.052a.3.3,0,0,1-.245-.36h0a.307.307,0,0,1,.355-.25l5.765,1.057a.307.307,0,0,1,.25.36h0a.307.307,0,0,1-.36.245Z" transform="translate(-1.422 -54.012)" fill="#d88ba9"/>
        <path id="Path_2682" data-name="Path 2682" d="M77.609,107.957,71.845,106.9a.307.307,0,0,1-.25-.355h0a.312.312,0,0,1,.36-.25l5.765,1.052a.312.312,0,0,1,.25.36h0A.312.312,0,0,1,77.609,107.957Z" transform="translate(-1.196 -55.254)" fill="#d88ba9"/>
        <path id="Path_2683" data-name="Path 2683" d="M99.869,85.89l-1.888.375-1.287,2.013a1.042,1.042,0,0,0-.144.754l1.922,9.584a1.177,1.177,0,0,0,1.379.922l3.392-.677a1.172,1.172,0,0,0,.913-1.388l-1.922-9.608a1.023,1.023,0,0,0-.418-.639Z" transform="translate(-14.155 -44.654)" fill="#140e40"/>
        <rect id="Rectangle_310" data-name="Rectangle 310" width="1.974" height="1.974" transform="translate(83.575 40.467) rotate(-11.24)" fill="#140e40"/>
        <path id="Path_2684" data-name="Path 2684" d="M100.781,83.576l-2.272.432a.235.235,0,0,1-.274-.183h0a.24.24,0,0,1,.183-.279l2.272-.452a.235.235,0,0,1,.274.187h0a.235.235,0,0,1-.183.293Z" transform="translate(-15.039 -43.2)" fill="#4717b7"/>
        <path id="Path_2685" data-name="Path 2685" d="M102.2,91.089l-5.765,1.143a.3.3,0,0,1-.36-.24h0a.307.307,0,0,1,.24-.365l5.765-1.143a.307.307,0,0,1,.36.245h0a.307.307,0,0,1-.24.36Z" transform="translate(-13.914 -47.038)" fill="#4717b7"/>
        <path id="Path_2686" data-name="Path 2686" d="M102.669,93.468,96.9,94.612a.307.307,0,0,1-.36-.24h0a.312.312,0,0,1,.24-.365l5.765-1.143a.3.3,0,0,1,.36.245h0a.307.307,0,0,1-.24.36Z" transform="translate(-14.159 -48.274)" fill="#4717b7"/>
        <path id="Path_2687" data-name="Path 2687" d="M103.134,95.849l-5.765,1.143a.312.312,0,0,1-.365-.24h0a.312.312,0,0,1,.245-.365l5.765-1.143a.312.312,0,0,1,.365.245h0a.307.307,0,0,1-.245.36Z" transform="translate(-14.398 -49.511)" fill="#4717b7"/>
        <path id="Path_2688" data-name="Path 2688" d="M103.613,98.224l-5.765,1.143a.312.312,0,0,1-.365-.24h0a.317.317,0,0,1,.245-.37l5.765-1.143a.312.312,0,0,1,.365.24h0a.312.312,0,0,1-.245.37Z" transform="translate(-14.647 -50.743)" fill="#4717b7"/>
        <path id="Path_2689" data-name="Path 2689" d="M85.21,116.976c.231.428.447.821.62,1.148a1.254,1.254,0,0,0,1.6.557c.37-.159,2.229-1,2.589-1.177a1.259,1.259,0,0,0,.629-1.58l-.428-1.134C88.544,115.491,86.872,116.226,85.21,116.976Z" transform="translate(-8.273 -59.671)" fill="#4717b7"/>
        <path id="Path_2690" data-name="Path 2690" d="M82.169,98.012c-.692-.058-1.441-2.4-1.441-2.4l-.759.351-.749.341s1.263,2.109.855,2.666-1.585,1.283-.788,2.906l.072.139c1.715-1.1,3.459-2.2,5.193-3.271C83.812,97.767,82.765,98.065,82.169,98.012Z" transform="translate(-5.054 -49.704)" fill="#4717b7"/>
        <path id="Path_2691" data-name="Path 2691" d="M79.72,105.4c.524,1.052,1.734,3.315,2.637,5,1.662-.749,3.334-1.484,5.015-2.186-.711-1.878-1.7-4.477-2.128-5.5a2.767,2.767,0,0,0-.331-.586C83.179,103.206,81.435,104.3,79.72,105.4Z" transform="translate(-5.42 -53.092)" fill="#ff6b74"/>
        <rect id="Rectangle_311" data-name="Rectangle 311" width="2.277" height="1.208" transform="matrix(0.912, -0.411, 0.411, 0.912, 73.509, 46.571)" fill="#15233e"/>
        <path id="Path_2692" data-name="Path 2692" d="M100.072,109l-.447,1.225a1.254,1.254,0,0,0,.644,1.571c.365.168,2.229,1,2.6,1.153a1.249,1.249,0,0,0,1.6-.572l.567-1.076C103.391,110.494,101.734,109.735,100.072,109Z" transform="translate(-15.722 -56.662)" fill="#76cacc"/>
        <path id="Path_2693" data-name="Path 2693" d="M109.631,93.2c-.413-.552.826-2.671.826-2.671L109.7,90.2l-.749-.336s-.74,2.344-1.441,2.4-2.013-.341-2.695,1.335a.5.5,0,0,1-.058.144c1.965.552,3.934,1.134,5.894,1.72C110.909,94.275,109.987,93.684,109.631,93.2Z" transform="translate(-18.431 -46.717)" fill="#76cacc"/>
        <path id="Path_2694" data-name="Path 2694" d="M102.629,98c-.437,1.09-1.331,3.492-1.989,5.284,1.662.749,3.319,1.508,4.962,2.3.932-1.773,2.224-4.242,2.7-5.236a2.709,2.709,0,0,0,.221-.634C106.578,99.114,104.594,98.533,102.629,98Z" transform="translate(-16.29 -50.946)" fill="#f4a6c0"/>
        <rect id="Rectangle_312" data-name="Rectangle 312" width="2.282" height="1.211" transform="translate(90.384 42.679) rotate(23.95)" fill="#15233e"/>
        <path id="Path_2695" data-name="Path 2695" d="M92.58,93.19v9.8l6.11.495,1.633-6.183-2.469.649.413-4.405Z" transform="translate(-12.102 -48.447)" fill="#186e72"/>
        <path id="Path_2696" data-name="Path 2696" d="M79.608,117.077l.855-7.028-4.333-.889-1.71,4.285,1.825-.245-.682,3.118Z" transform="translate(-2.666 -56.745)" fill="#186e72"/>
        <path id="Path_2697" data-name="Path 2697" d="M82.458,161.782l23.034-3.094a3.319,3.319,0,0,0,2.882-3.555l-3.646-45.824L70.17,113.965l8.565,45.156A3.315,3.315,0,0,0,82.458,161.782Z" transform="translate(-0.458 -56.823)" fill="#428efc"/>
        <path id="Path_2698" data-name="Path 2698" d="M104.544,110.06,70,114.7l.476,2.676,34.3-4.612Z" transform="translate(-0.369 -57.213)" fill="#2d78d3"/>
        <rect id="Rectangle_313" data-name="Rectangle 313" width="38.618" height="4.645" transform="translate(106.28 53.388) rotate(172.35)" fill="#428efc"/>
        <path id="Path_2699" data-name="Path 2699" d="M35.036,68.73l-.072-.13-1.9,2.532-1.244-1.465-.946,2.08L25.3,68.672l-.394.173L30.9,72.212,32.034,70.3l.985,1.153Z" transform="translate(23.06 -35.67)" fill="#050505" opacity="0.07"/>
        <path id="Path_2700" data-name="Path 2700" d="M19.938,68.72c-7.321,1.869-6.836,18.533-5.284,29.366a2.481,2.481,0,0,0,2.6,1.773l5.712.086,2.277.034,6.375.1c1.475,0,1.749-.86,1.782-1.974a175.034,175.034,0,0,0-.961-17.851c-.144-3.92-3.219-10.261-3.219-10.261a45.472,45.472,0,0,1-4.8,0,43.715,43.715,0,0,1-4.482-1.273Z" transform="translate(28.882 -35.732)" fill="#186e72"/>
        <path id="Path_2701" data-name="Path 2701" d="M32.94,104.25l-19.191.13-.029,1.681,19.345-.135Z" transform="translate(28.875 -54.194)" fill="url(#linear-gradient-18)"/>
        <path id="Path_2702" data-name="Path 2702" d="M34.4,110.89l-20.354.135-.034,1.681,20.4-.139Z" transform="translate(28.724 -57.644)" fill="url(#linear-gradient-19)"/>
        <path id="Path_2703" data-name="Path 2703" d="M58.68,114.768a6.336,6.336,0,0,1,1.556.778,14.723,14.723,0,0,0,2.272,1.182c.4.163,1.96-1.028,2.527-2.2.144-.293.235-.658-.187-.807-.538-.187-1.816-.6-2.671-.889-.2-.067-.2-.159-.034-.293.341-.274.889-.812.6-1.114-.437-.211-.581.221-1.528.562a3.363,3.363,0,0,1-1.393-.235" transform="translate(5.513 -57.89)" fill="#b2765e"/>
        <path id="Path_2704" data-name="Path 2704" d="M17.581,84.06a16.171,16.171,0,0,0,1.441,6.764c2.4,5.765,9.127,7.686,16.813,10.088a31.246,31.246,0,0,0,2.882-5.4s-7.489-.879-9.973-3.094S24.2,85.886,23.4,83.258,17.581,84.06,17.581,84.06Z" transform="translate(26.873 -42.771)" fill="#61afaf"/>
        <path id="Path_2705" data-name="Path 2705" d="M38.93,94.618l-1.84,4.958S25.2,96.3,22.323,93.518c-3.435-3.315-5.87-8.743-4.463-11.817.918-2.008,4.8-1.518,4.8-1.518s3.026,9.243,5.62,11.38S38.93,94.618,38.93,94.618Z" transform="translate(26.934 -41.661)" fill="#76cacc"/>
        <circle id="Ellipse_110" data-name="Ellipse 110" cx="3.824" cy="3.824" r="3.824" transform="translate(78.527 100.405)" fill="#5d5a68"/>
        <circle id="Ellipse_111" data-name="Ellipse 111" cx="1.513" cy="1.513" r="1.513" transform="translate(80.838 102.716)" fill="#777489"/>
        <path id="Path_2706" data-name="Path 2706" d="M316.985,217.09a5.366,5.366,0,0,0,2.051,1.95,11.477,11.477,0,0,0,2.849.552.682.682,0,0,1-.067,1.34c-2.013.408-6.773.62-8.2-.12-1.177-.649-.154-3.286-.154-3.286Z" transform="translate(-162.663 -112.828)" fill="#493a54"/>
        <path id="Path_2707" data-name="Path 2707" d="M298.7,116.19s-4.679,16.9,8.647,33.252a84.463,84.463,0,0,0-2.2,15.853s4.323.351,4.871-.634,6.043-13.451,5.568-18.163c-.264-2.623.207-22.328-7.513-28.823Z" transform="translate(-154.791 -60.398)" fill="#4717b7"/>
        <path id="Path_2708" data-name="Path 2708" d="M300.517,217.19a5.284,5.284,0,0,0,2.061,1.922,11.391,11.391,0,0,0,2.882.533.687.687,0,0,1-.062,1.34c-2.008.423-6.769.668-8.2-.062-1.182-.634-.178-3.286-.178-3.286Z" transform="translate(-154.126 -112.879)" fill="#493a54"/>
        <path id="Path_2709" data-name="Path 2709" d="M293.687,127.323c-1.388,9.954,2.681,15.66,2.5,19.374-.432,9.017-1.388,16.89-1.388,20.849,0,0,3.478,1.624,5.938.375.644-1.254,6.581-17.726,6.8-20.354s1.153-21.92-5.736-27.516C301.786,120.05,294.552,120.987,293.687,127.323Z" transform="translate(-152.45 -62.404)" fill="#4717b7"/>
        <path id="Path_2710" data-name="Path 2710" d="M318.071,154.31l-1.331,15.838-2.93,8.777v1.609l3.564-10.107,1.273-15.406Z" transform="translate(-163.057 -80.206)" fill="#140e40"/>
        <path id="Path_2711" data-name="Path 2711" d="M303.474,147.16a7.775,7.775,0,0,1-3.694,2.493l.331.961a9.57,9.57,0,0,0,3.363-1.72l1.057-1.057Z" transform="translate(-155.767 -76.491)" fill="#140e40"/>
        <path id="Path_2712" data-name="Path 2712" d="M381.046,97.615a.327.327,0,0,1-.231-.091l-9.483-8.743a.348.348,0,0,1,.48-.5l9.483,8.743a.346.346,0,0,1,0,.48.356.356,0,0,1-.25.115Z" transform="translate(-192.891 -45.844)" fill="url(#linear-gradient-20)"/>
        <path id="Path_2713" data-name="Path 2713" d="M355.173,97.849A.327.327,0,0,1,355,97.8a.346.346,0,0,1-.125-.48l4.371-7.4a.346.346,0,0,1,.591.351l-4.367,7.4a.36.36,0,0,1-.3.178Z" transform="translate(-184.369 -46.679)" fill="url(#linear-gradient-21)"/>
        <path id="Path_2714" data-name="Path 2714" d="M384.157,112.5v9.939c.168.067-7.974.865-13.119,1.34l-1.84.168c-1.3.12-2.162.2-2.258.2v-9.963c.091,0,.961-.077,2.258-.192l1.84-.173C376.1,113.369,383.974,112.6,384.157,112.5Z" transform="translate(-190.664 -58.481)" fill="url(#linear-gradient-22)"/>
        <path id="Path_2715" data-name="Path 2715" d="M375.526,107.964h0c-.2.115-10.492,1.1-15.07,1.518-1.239.11-2.056.183-2.147.183a66.554,66.554,0,0,1-7.979-4.65v-.048s6.725-.528,11.592-.879c2.709-.2,4.852-.336,4.958-.3C367.177,103.885,375.281,107.868,375.526,107.964Z" transform="translate(-182.033 -53.95)" fill="url(#linear-gradient-23)"/>
        <path id="Path_2716" data-name="Path 2716" d="M360.456,109.825c-1.239.11-2.056.183-2.147.183a66.555,66.555,0,0,1-7.979-4.65v-.048s6.725-.528,11.592-.879C360.48,105.737,359.376,107.586,360.456,109.825Z" transform="translate(-182.033 -54.287)" opacity="0.5" fill="url(#linear-gradient-24)" style="mix-blend-mode: overlay;isolation: isolate"/>
        <path id="Path_2717" data-name="Path 2717" d="M358.355,111.09v9.944c-.442,0-8.421-4.665-7.974-4.7v-9.9A68.44,68.44,0,0,0,358.355,111.09Z" transform="translate(-182.05 -55.332)" fill="url(#linear-gradient-25)"/>
        <path id="Path_2718" data-name="Path 2718" d="M375.531,119.4l-12.187.961a.86.86,0,0,1-.932-.86V115.26l-1.84.173v4.352a.87.87,0,0,1-.8.86l-1.441.115H358.3l-7.955-3.939v1.83l7.955,4.054,1.321-.11a.865.865,0,0,1,.937.86v1.922l1.84-.168v-2.066a.865.865,0,0,1,.793-.86l12.327-1.028Z" transform="translate(-182.039 -59.915)" opacity="0.5" fill="url(#linear-gradient-26)" style="mix-blend-mode: overlay;isolation: isolate"/>
        <path id="Path_2719" data-name="Path 2719" d="M370.628,111.08a.346.346,0,0,1-.346-.346v-9.91L368,87.633a.351.351,0,0,1,.283-.4.336.336,0,0,1,.394.279l2.287,13.225a.235.235,0,0,1,0,.058v9.939A.341.341,0,0,1,370.628,111.08Z" transform="translate(-191.211 -45.349)" fill="url(#linear-gradient-27)"/>
        <path id="Path_2720" data-name="Path 2720" d="M357.883,124.177a.341.341,0,0,1-.154-.034l-7.845-4.016a.341.341,0,0,1-.154-.48.346.346,0,0,1,.48-.154l7.758,3.973,17.207-1.283a.351.351,0,0,1,.37.317.346.346,0,0,1-.317.37l-17.294,1.287Z" transform="translate(-181.698 -62.092)" fill="url(#linear-gradient-28)"/>
        <path id="Path_2721" data-name="Path 2721" d="M345.82,112.012l6.187,2.051-4.021-2.5Z" transform="translate(-179.69 -57.992)" fill="url(#linear-gradient-29)"/>
        <path id="Path_2722" data-name="Path 2722" d="M389.156,123.36l-12.6.994,13.595,1.989Z" transform="translate(-195.663 -64.124)" fill="url(#linear-gradient-30)"/>
        <path id="Path_2740" data-name="Path 2740" d="M327,80.109c8.311-.37,16.813.327,21.017,4.035,1.441,1.283,1.609,1.441,1.609,1.441s-.927-.317-2.484-.865a3.19,3.19,0,0,0-1.412-.154l-.274.562h-.053c-.274.48-.682,1.066-.961.908s-.187-.61-.12-1.052c-2.4-.327-8.07-1.071-9.127-1.066-1.335,0-9.459,1.8-9.459,1.8L324.43,79.95S325.54,80.012,327,80.109Z" transform="translate(-168.575 -41.567)" fill="#b2765e"/>
        <path id="Path_2741" data-name="Path 2741" d="M313.155,85.563c.346,3.5-15.853.163-15.776-2.772.082-2.772,2.3-8.681,2.834-10.568,1.508-5.284,3.886.12,7.758-.4a5.807,5.807,0,0,0,.183,1.475C309.629,76.186,311.224,77.017,313.155,85.563Z" transform="translate(-154.519 -36.338)" fill="#b2765e"/>
        <path id="Path_2742" data-name="Path 2742" d="M307.378,78.215l-3.454-.255s-1.153,1.129-4.232,1.307a7.382,7.382,0,0,1-4.525-1.777,22.588,22.588,0,0,0-4.069,2.051c-4.256,4.251-2.82,11.231-2.82,11.231s-.062,12.946,2.191,16.852,18.077,2.051,18.605,1.379c1.71-2.152-.624-18.01-.524-22.924l5.361-1.34c1.648.192,8.777.245,9.334-1.316,0,0,1.307-1.979.8-3.363-.932-.423-9.954-1.984-9.954-1.984Z" transform="translate(-149.669 -40.289)" fill="#cfdb67"/>
        <path id="Path_2743" data-name="Path 2743" d="M330.08,89.36l.312,2.882.288-.091A28.293,28.293,0,0,0,330.08,89.36Z" transform="translate(-171.511 -46.457)" fill="#cfdb67" opacity="0.1"/>
        <path id="Path_2744" data-name="Path 2744" d="M311.93,101.349,302.87,77.44s2.719,1.878,4.991,1.768a6.476,6.476,0,0,0,3.521-1.11Z" transform="translate(-157.372 -40.263)" fill="#cfdb67"/>
        <path id="Path_2745" data-name="Path 2745" d="M307.816,34.638c-.74-4.323-1.071-6.61-4-8.8a18.262,18.262,0,0,0-11.212-3.233,20.041,20.041,0,0,0-5.034,1.72c-2.671,1.35-5.5,3.6-6.125,7.316a15.992,15.992,0,0,0,.144,6.173c1.086,4.722,4.52,8.556,10.271,10.026,4.064,1.038,8.551.759,12.01-1.441C305.131,45.581,309.065,41.978,307.816,34.638Z" transform="translate(-146.12 -11.771)" fill="#e2ab9c"/>
        <path id="Path_2746" data-name="Path 2746" d="M305.476,19.514c2.2-.2,2.018-4.04-1.081-2.791,1.239-.99,2.661-2.628,1.292-4.323-1.653-2.066-6.216-1.417-6.725,1.619.091-.394.985-2.959-.48-3.742a2.9,2.9,0,0,0-4.492,2.805c.034.115-12.97-2.445-16.362,9.324-.961,4.323.48,8.921,3.238,9.521.937.207,2.4-.062,2.147-.99-1.283-3.641-1.816-4.8.221-5.822,1.638-.8,14.964.961,20.022-2.224a14.817,14.817,0,0,1,2.762,8.508C307.686,30.083,307.325,22.368,305.476,19.514Z" transform="translate(-144.102 -5.098)" fill="#752d06"/>
        <path id="Path_2747" data-name="Path 2747" d="M283.855,53.919a1.922,1.922,0,1,1-1.686-2.114A1.921,1.921,0,0,1,283.855,53.919Z" transform="translate(-145.501 -26.936)" fill="#e2ab9c"/>
        <path id="Path_2748" data-name="Path 2748" d="M283.664,53.749a.845.845,0,0,0-1.033.125c-.581.48-.615,1.11-.255,1.263.48.207.307-.4.773-.519s.7.207.961-.168S283.664,53.749,283.664,53.749Z" transform="translate(-146.602 -27.89)" fill="#a46854" opacity="0.7"/>
        <g id="Group_351" data-name="Group 351" transform="translate(151.824 23.19)" opacity="0.7">
          <path id="Path_2749" data-name="Path 2749" d="M316.289,52.011h.072a4.364,4.364,0,0,0,.615-.1,1.067,1.067,0,0,0,.817-.653,1.119,1.119,0,0,0-.3-1.062,2.8,2.8,0,0,1-.379-1.556.283.283,0,1,0-.562,0,3.41,3.41,0,0,0,.48,1.922c.173.216.25.413.207.538s-.187.221-.428.283a2.988,2.988,0,0,1-.509.077.288.288,0,0,0-.259.3.283.283,0,0,0,.25.245Z" transform="translate(-316.039 -48.324)" fill="#a46854"/>
        </g>
        <path id="Path_2752" data-name="Path 2752" d="M302.257,50.234c.029.586.389,1.042.8,1.018s.725-.514.692-1.1-.394-1.038-.807-1.014S302.224,49.653,302.257,50.234Z" transform="translate(-157.053 -25.557)" fill="#3b3036"/>
        <path id="Path_2753" data-name="Path 2753" d="M325.557,49.1c.034.586.394,1.042.807,1.018s.721-.514.687-1.1-.389-1.028-.8-1.028S325.524,48.524,325.557,49.1Z" transform="translate(-169.16 -24.966)" fill="#3b3036"/>
        <path id="Path_2754" data-name="Path 2754" d="M312.733,58.567c.605.9,2.046,1.292,2.484,0,.144-.432.831-.24.687.2a1.955,1.955,0,0,1-1.657,1.374,2.4,2.4,0,0,1-2.133-1.211c-.259-.384.365-.735.62-.355Z" transform="translate(-162.143 -30.33)" fill="#a46854"/>
        <path id="Path_2755" data-name="Path 2755" d="M317.356,53.006c.034.548.053,1.086.048,1.278a15.57,15.57,0,0,1-2.056,5.8c-.524.9-2.882,3.041-7.595,3.771a14.974,14.974,0,0,1-4.559.029c-2.551-.749-4.141-2.128-4.208-3.238-.111-1.792.528-6.245.918-6.543s5.284.615,10.3-.11c3.06-.447,6.082-.514,7.148-1.441Z" transform="translate(-155.348 -27.33)" fill="#98eff4" fill-rule="evenodd"/>
        <path id="Path_2756" data-name="Path 2756" d="M286.764,53.21c2.368,1.566,6.019,3.588,8.522,4.919a.269.269,0,0,1-.024.533,90.63,90.63,0,0,1-8.834-5.039.255.255,0,0,1-.058-.351l.024-.029c.1-.072.567.072.682.168Z" transform="translate(-148.775 -27.673)" fill="#98eff4" fill-rule="evenodd"/>
        <path id="Path_2757" data-name="Path 2757" d="M284.672,58.919c2.8,1.922,5.284,3.468,8.191,5.179a.266.266,0,1,1-.264.461h0c-2.95-1.729-5.424-3.262-8.243-5.222a.267.267,0,0,1,.283-.452h.034Z" transform="translate(-147.687 -30.601)" fill="#98eff4" fill-rule="evenodd"/>
        <path id="Path_2758" data-name="Path 2758" d="M311.692,75.89s-4.8.351-6.048.235l-1.244-.12a12.327,12.327,0,0,0,3.757.581,32.127,32.127,0,0,0,3.6-.327Z" transform="translate(-158.167 -39.458)" fill="#a46854" opacity="0.61"/>
        <path id="Path_2759" data-name="Path 2759" d="M286.164,123.813c.673-6.552,1.681-16.333,1.974-19.129-.183-6.985.082-11.395,1.268-16.65l1.955-.351,1.172-9.468.884-.365.187,9.848,10.006.2.274-9.757.961.062.331,8.877v.183l.034.677h.053l2.344.365s4.088,30.927,5.049,40.371c0,0-19.417,4.29-27.127,1.335C285.525,130.015,285.794,127.4,286.164,123.813Z" transform="translate(-148.362 -40.476)" fill="#34ba74"/>
        <path id="Path_2760" data-name="Path 2760" d="M352.121,128.482a.336.336,0,0,1-.235-.091l-9.478-8.743a.341.341,0,1,1,.48-.48l9.478,8.743a.346.346,0,0,1-.231.6Z" transform="translate(-177.853 -61.882)" fill="url(#linear-gradient-31)"/>
        <path id="Path_2761" data-name="Path 2761" d="M326.257,128.683a.336.336,0,0,1-.173-.048.346.346,0,0,1-.12-.48l4.367-7.4a.342.342,0,0,1,.591.346l-4.367,7.4A.346.346,0,0,1,326.257,128.683Z" transform="translate(-169.346 -62.683)" fill="url(#linear-gradient-32)"/>
        <path id="Path_2762" data-name="Path 2762" d="M355.237,143.37v9.939c.173.062-7.97.86-13.114,1.34l-1.84.168c-1.3.12-2.167.192-2.263.192v-9.939c.091,0,.961-.077,2.263-.192l1.84-.173C347.162,144.239,355.059,143.471,355.237,143.37Z" transform="translate(-175.637 -74.521)" fill="url(#linear-gradient-33)"/>
        <path id="Path_2763" data-name="Path 2763" d="M346.611,138.834h0c-.2.115-10.487,1.1-15.065,1.518-1.239.11-2.061.183-2.152.183a66.5,66.5,0,0,1-7.974-4.65v-.048s6.725-.528,11.587-.879c2.714-.2,4.857-.336,4.958-.3C338.262,134.76,346.366,138.738,346.611,138.834Z" transform="translate(-167.011 -69.99)" fill="url(#linear-gradient-34)"/>
        <path id="Path_2764" data-name="Path 2764" d="M331.546,140.695c-1.239.11-2.061.183-2.152.183a66.5,66.5,0,0,1-7.974-4.65v-.048s6.725-.528,11.587-.879C331.566,136.6,330.466,138.451,331.546,140.695Z" transform="translate(-167.011 -70.328)" opacity="0.5" fill="url(#linear-gradient-35)" style="mix-blend-mode: overlay;isolation: isolate"/>
        <path id="Path_2765" data-name="Path 2765" d="M329.46,141.97v9.944c-.442,0-8.416-4.665-7.97-4.7v-9.9A67.106,67.106,0,0,0,329.46,141.97Z" transform="translate(-167.038 -71.378)" fill="url(#linear-gradient-36)"/>
        <path id="Path_2766" data-name="Path 2766" d="M346.616,150.271l-12.183.961a.865.865,0,0,1-.932-.865V146.13l-1.84.173v4.352a.87.87,0,0,1-.8.86l-1.441.11h-.038l-7.955-3.939v1.83l7.96,4.05,1.326-.111a.86.86,0,0,1,.961.86v1.922l1.84-.168V154a.855.855,0,0,1,.788-.86l12.327-1.033Z" transform="translate(-167.017 -75.956)" opacity="0.5" fill="url(#linear-gradient-37)" style="mix-blend-mode: overlay;isolation: isolate"/>
        <path id="Path_2767" data-name="Path 2767" d="M341.722,141.989a.341.341,0,0,1-.341-.346v-9.91l-2.282-13.2a.346.346,0,0,1,.677-.115l2.287,13.22a.274.274,0,0,1,0,.062v9.925a.346.346,0,0,1-.341.36Z" transform="translate(-176.198 -61.428)" fill="url(#linear-gradient-38)"/>
        <path id="Path_2768" data-name="Path 2768" d="M328.974,155.049a.3.3,0,0,1-.159-.038L320.971,151a.346.346,0,0,1-.149-.48.341.341,0,0,1,.48-.149l7.749,3.987,17.212-1.283a.346.346,0,1,1,.053.687l-17.294,1.287Z" transform="translate(-166.677 -78.134)" fill="url(#linear-gradient-39)"/>
        <path id="Path_2769" data-name="Path 2769" d="M316.91,142.882l6.187,2.051-4.021-2.5Z" transform="translate(-164.668 -74.033)" fill="url(#linear-gradient-40)"/>
        <path id="Path_2770" data-name="Path 2770" d="M360.24,154.22l-12.6,1,13.595,1.989Z" transform="translate(-180.636 -80.159)" fill="url(#linear-gradient-41)"/>
        <path id="Path_2771" data-name="Path 2771" d="M331.22,117.561a6.336,6.336,0,0,1,1.729.221,14.919,14.919,0,0,0,2.536.36c.428,0,1.5-1.619,1.652-2.921.034-.322,0-.7-.447-.7-.572,0-1.922.034-2.815.048-.211,0-.24-.086-.125-.269.226-.37.567-1.057.192-1.249-.48-.053-.48.4-1.259,1.042a3.444,3.444,0,0,1-1.393.235" transform="translate(-172.104 -58.767)" fill="#b2765e"/>
        <path id="Path_2772" data-name="Path 2772" d="M290.45,96.7s.769,9.949,19.383,11.592a18.133,18.133,0,0,0,.432-5.635,25.648,25.648,0,0,1-6.581-1.566c-3.046-1.254-6.379-4.837-8.013-7.047S290.45,96.7,290.45,96.7Z" transform="translate(-150.919 -48.594)" fill="#bcc159"/>
        <path id="Path_2773" data-name="Path 2773" d="M310.665,101.88l-.1,5.284s-8.306-1.038-11.938-2.7c-4.323-1.989-8.676-6.725-8.368-10.088.2-2.2,4.016-3.017,4.016-3.017s5.928,7.686,9.084,8.853a40.021,40.021,0,0,0,7.3,1.667Z" transform="translate(-150.814 -47.496)" fill="#cfdb67"/>
        <path id="Path_2774" data-name="Path 2774" d="M423.3,147.822s-.48-3.363.865-4.722a2.81,2.81,0,0,1,3.661-.3c.769.764.682,3.622.682,3.622" transform="translate(-224.906 -73.943)" fill="none" stroke="#a45c1c" stroke-miterlimit="10" stroke-width="2.11"/>
        <path id="Path_2775" data-name="Path 2775" d="M428.811,149.905l-2.926-1.1L412.8,151.6l3.151.908Z" transform="translate(-219.494 -77.348)" fill="#8f4f17"/>
        <path id="Path_2776" data-name="Path 2776" d="M412.846,147.68c-.226-2.594.341-4.573,1.292-5.625a3.487,3.487,0,0,0,.783-2.061l.25-3.387h-.053a.322.322,0,0,1-.2-.283l-.053-1.816c0-.154.053-.221.355-.317a3.843,3.843,0,0,1,1.806-.072c.159.053.274.077.293.231l.2,1.806a.327.327,0,0,1-.154.312l-.053.029.533,3.329a3.478,3.478,0,0,0,1.062,1.922c1.09.913,1.922,2.791,2.066,5.39s.5,8.008-.091,8.311c-2.022,1.042-6.312.994-7.1.48C413.221,155.559,413.072,150.274,412.846,147.68Z" transform="translate(-219.492 -69.676)" fill="#34ba74"/>
        <path id="Path_2777" data-name="Path 2777" d="M419.887,139.079a5.6,5.6,0,0,1-1.119.226,2.911,2.911,0,0,1-1.028-.091v.3a4.617,4.617,0,0,0,1.066.086,5.079,5.079,0,0,0,1.129-.226l-.048-.312" transform="translate(-222.061 -72.282)" fill="#186e72"/>
        <path id="Path_2778" data-name="Path 2778" d="M417.38,134.512c0,.11.48.173,1.071.134s1.057-.159,1.047-.269-.48-.178-1.071-.139S417.375,134.4,417.38,134.512Z" transform="translate(-221.874 -69.771)" fill="#186e72"/>
        <path id="Path_2779" data-name="Path 2779" stroke="#f9f8f8" d="M416.419,151.73a4,4,0,0,0-1.359,2.906" fill="none" transform="translate(-220.668 -78.865)" stroke-linecap="round" stroke-linejoin="round" stroke-width="1.28" opacity="0.28"/>
        <path id="Path_2780" data-name="Path 2780" stroke="#f9f8f8" d="M418.168,178.844a6.363,6.363,0,0,1-2.618-.144" fill="none" transform="translate(-220.923 -92.879)" stroke-linecap="round" stroke-linejoin="round" stroke-width="1.28" opacity="0.28"/>
        <path id="Path_2781" data-name="Path 2781" d="M423.981,151.946c.245-2.594,1.158-4.439,2.287-5.284a3.483,3.483,0,0,0,1.139-1.883l.86-3.286-.048-.034a.322.322,0,0,1-.144-.317l.279-1.8c.024-.149.086-.2.4-.245a3.843,3.843,0,0,1,1.792.255c.149.082.259.125.25.279l-.13,1.816a.317.317,0,0,1-.207.274l-.053.024-.077,3.363a3.454,3.454,0,0,0,.692,2.085c.913,1.1,1.393,3.094,1.062,5.678s-.961,7.965-1.585,8.167c-2.181.658-6.394-.163-7.081-.8C422.929,159.762,423.732,154.535,423.981,151.946Z" transform="translate(-224.93 -72.294)" fill="#458c6d"/>
        <path id="Path_2782" data-name="Path 2782" d="M435.755,144.294a5.5,5.5,0,0,1-1.143,0,2.805,2.805,0,0,1-.994-.274l-.058.312a4.549,4.549,0,0,0,1.033.279,5.381,5.381,0,0,0,1.148,0v-.317" transform="translate(-230.281 -74.859)" fill="#092758" opacity="0.1"/>
        <path id="Path_2783" data-name="Path 2783" d="M434.15,139.379c0,.115.447.259,1.028.331s1.066.034,1.076-.082-.447-.259-1.028-.327S434.164,139.269,434.15,139.379Z" transform="translate(-230.588 -72.39)" fill="#deb013"/>
        <path id="Path_2784" data-name="Path 2784" stroke="#f9f8f8" d="M429.584,156.23a3.989,3.989,0,0,0-1.864,2.613" fill="none" transform="translate(-227.247 -81.204)" stroke-linecap="round" stroke-linejoin="round" stroke-width="1.28" opacity="0.28"/>
        <path id="Path_2785" data-name="Path 2785" stroke="#f9f8f8" d="M427.021,182.9a6.351,6.351,0,0,1-2.551-.615" fill="none" transform="translate(-225.558 -94.745)" stroke-linecap="round" stroke-linejoin="round" stroke-width="1.28" opacity="0.28"/>
        <path id="Path_2786" data-name="Path 2786" d="M434.15,139.379c0,.115.447.259,1.028.331s1.066.034,1.076-.082-.447-.259-1.028-.327S434.164,139.269,434.15,139.379Z" transform="translate(-230.588 -72.39)" fill="#3a795b"/>
        <path id="Path_2787" data-name="Path 2787" d="M433.865,142.274l-.053.024-.077,3.363a3.454,3.454,0,0,0,.692,2.085c.913,1.1,1.393,3.094,1.062,5.678s-.961,7.965-1.585,8.167a10.453,10.453,0,0,1-4.083.091s1.383-3.771,2.474-15.084c.389-4.059.634-4.266.634-4.266h.211s.1-.62.139-1.124.048-.845.048-.845.759.086.874-.183l-.13,1.816a.317.317,0,0,1-.207.274" transform="translate(-228.338 -72.864)" fill="#092758" opacity="0.1"/>
        <path id="Path_2788" data-name="Path 2788" d="M413.873,155.528l-3.151-.908L408.8,175.276a7.566,7.566,0,0,1,2.291.865l2.224,1.278Z" transform="translate(-217.415 -80.367)" fill="#a75d1d"/>
        <path id="Path_2789" data-name="Path 2789" d="M426.51,151.129s-.48-3.363.865-4.722a2.81,2.81,0,0,1,3.66-.307c.764.769.677,3.627.677,3.627" transform="translate(-226.574 -75.66)" fill="none" stroke="#a45c1c" stroke-miterlimit="10" stroke-width="2.11"/>
        <path id="Path_2790" data-name="Path 2790" d="M431.607,151.09l-12.86,2.6-.567,21.891,14.484-2.277Z" transform="translate(-222.289 -78.533)" fill="#b66b21"/>
        <path id="Path_2791" data-name="Path 2791" d="M444.21,73.548a15.98,15.98,0,0,0,.61-2.287c3.881.524,7.811-4.948,7.806.576,0,.48.317.913.922,1.441a15.343,15.343,0,0,1-5.337,1.114,7.82,7.82,0,0,1-4-.821" transform="translate(-235.815 -36.058)" fill="#f8c295"/>
        <path id="Path_2792" data-name="Path 2792" d="M441.372,24.881a19.394,19.394,0,0,1,4.741,1.922c2.488,1.441,5.1,3.776,5.467,7.374a15.372,15.372,0,0,1-.48,5.918c-1.311,4.472-4.8,7.965-10.429,9.05-3.958.769-8.248.25-11.452-2.08a12.278,12.278,0,0,1-4.4-11.424,11.483,11.483,0,0,1,5.592-8.287A17.62,17.62,0,0,1,441.372,24.881Z" transform="translate(-225.656 -12.924)" fill="#f8c295"/>
        <path id="Path_2793" data-name="Path 2793" d="M444.881,52.386a.269.269,0,0,0,0-.533,4.164,4.164,0,0,1-.48-.077c-.231-.062-.375-.163-.413-.279s.034-.307.2-.519a3.3,3.3,0,0,0,.48-1.849.269.269,0,0,0-.538,0,2.7,2.7,0,0,1-.37,1.5,1.081,1.081,0,0,0-.293,1.018,1.014,1.014,0,0,0,.8.644,4.5,4.5,0,0,0,.591.091Z" transform="translate(-235.415 -25.412)" fill="#df9b5b"/>
        <path id="Path_2794" data-name="Path 2794" d="M421.662,24.611a3.459,3.459,0,0,1,0-3.19c1.038-1.052,2.512-.509,2.234-.994a3.166,3.166,0,0,1,.163-2.786c.908-1.114,2.339-.889,3.329-.894,0-.836-.062-1.758,1.2-2.239a3.03,3.03,0,0,1,3.132,1.038c0-1.355,2.565-3.766,4.8-.48.48-.894,4.568-3.171,6.48,1.345a5.116,5.116,0,0,1,5.861,1.441,4.183,4.183,0,0,1,.85,2.685c1.97,0,4.2,3.526,2.637,5.63-.682.918-.48.11.524,1.883.648,1.158-.082,3.151-1.047,3.877a3.665,3.665,0,0,1-2.527,4.468,1.513,1.513,0,0,1-.423,1.8,2.743,2.743,0,0,1-1.883.543,2.037,2.037,0,0,1-1.292-.413c-.7-.615-.528-1.729-.231-2.6a1.643,1.643,0,0,1-.961-1.316,3.363,3.363,0,0,1,.264-1.662c.115-.288.918-.634-.322-1.359a1.63,1.63,0,0,1-.48-1.922,1.715,1.715,0,0,1,.524-.735l-.149-.067a1.921,1.921,0,0,0-.783-.11,2.046,2.046,0,0,1-1.84-1.873,1.25,1.25,0,0,0-.149-.745.826.826,0,0,0-.773-.25c-2.32.442-3.843.13-4.8-1.922-.25.961-2.152,1.643-3.142,1.523a2.992,2.992,0,0,1-2.138-2.493c-.48.918-1.5,3.449-4.155,1.489-2.282,3.089-4.54,6.725-2.829,13.244-1.523-1.335-3.363-4.756-2.959-6.826C418.593,26.667,421.662,24.611,421.662,24.611Z" transform="translate(-223.23 -6.995)" fill="#ff6b74"/>
        <path id="Path_2795" data-name="Path 2795" d="M462.609,56.185a2.825,2.825,0,1,1-2.839-2.805A2.825,2.825,0,0,1,462.609,56.185Z" transform="translate(-242.44 -27.761)" fill="#eaa965" opacity="0.32"/>
        <path id="Path_2796" data-name="Path 2796" d="M426.959,56.014c.038.149.221.11.38.11a2.825,2.825,0,0,0-.034-5.645,2.494,2.494,0,0,0-.634.082,14.329,14.329,0,0,0,.288,5.452Z" transform="translate(-226.63 -26.254)" fill="#eaa965" opacity="0.32"/>
        <path id="Path_2797" data-name="Path 2797" d="M457.105,50.449c-.043.567.245,1.057.648,1.086s.764-.4.807-.961-.245-1.057-.649-1.086S457.149,49.878,457.105,50.449Z" transform="translate(-242.513 -25.738)" fill="#45383f"/>
        <path id="Path_2798" data-name="Path 2798" d="M434.115,48.339c-.043.567.25,1.057.653,1.086s.764-.4.807-.961-.25-1.057-.653-1.086S434.159,47.768,434.115,48.339Z" transform="translate(-230.568 -24.642)" fill="#45383f"/>
        <path id="Path_2799" data-name="Path 2799" d="M444.917,75.52a14.411,14.411,0,0,0,5.938-.11c-.365.211-1.768,1-6.014.355Z" transform="translate(-236.142 -39.208)" fill="#050505" opacity="0.07"/>
        <path id="Path_2800" data-name="Path 2800" d="M445.546,58.46a4.08,4.08,0,0,1-1.624.682,1.942,1.942,0,0,1-1.888-.557s-.3,1.773.9,2.277a1.888,1.888,0,0,0,2.2-.538A2.556,2.556,0,0,0,445.546,58.46Z" transform="translate(-234.668 -30.401)" fill="#f9f5ec"/>
        <path id="Path_2801" data-name="Path 2801" d="M472.3,14.567a2.861,2.861,0,0,1,3.387-2.4c2.527.231,2.882,2.522,2.109,3.588,0,0,3.526-1.1,4.5,2.4.773,2.8-2.267,3.291-2.267,3.291s3.363.884,2.426,3.776c-1.384,4.237-5.308,1.345-5.308,1.345s.812,3.713-3.012,2.8-7.206-9.814-7.206-9.814l.413-3.776S469.783,11.32,472.3,14.567Z" transform="translate(-247.621 -6.333)" fill="#ff6b74"/>
        <path id="Path_2802" data-name="Path 2802" d="M477.482,30.817h0a.365.365,0,0,0,.341-.38,12.994,12.994,0,0,0-10.357-11.467.361.361,0,0,0-.154.706,12.209,12.209,0,0,1,9.79,10.8.365.365,0,0,0,.379.341Z" transform="translate(-247.672 -9.877)" fill="#f5d975"/>
        <path id="Path_2803" data-name="Path 2803" d="M432.743,179.875s-4.112-13.729-4.444-16.275c-.159-1.22,1.643-15.853,2.162-20.219l8.873,2.8c-.754,1.614-3.42,14.411-4.381,16.333,0,0,2.051,10.717,1.883,17.534,0,0-2.109.259-2.517.24a9.735,9.735,0,0,1-1.576-.408Z" transform="translate(-227.543 -74.527)" fill="#ff6b74"/>
        <path id="Path_2804" data-name="Path 2804" d="M458.741,180.188h0c-.255-3.944-.4-7.158-3.142-17.078-.355-1.292,3.757-16,4.42-18.408l-10.679-.8c-.514,5.616-1.532,19.431-1.028,20.656.845,2.085,5.64,13.167,6.725,15.766,0,0,2.906.283,3.723-.154" transform="translate(-237.876 -74.797)" fill="#ff6b74"/>
        <path id="Path_2805" data-name="Path 2805" d="M456.066,156.61a7.13,7.13,0,0,0,2.829,2.959l-.48.778a9.034,9.034,0,0,1-2.681-2.2L455,156.994Z" transform="translate(-241.422 -81.401)" fill="#ff6b74" opacity="0.1"/>
        <path id="Path_2806" data-name="Path 2806" d="M434.935,77.352s-4.607,4.444-5.284,8.911-3.291,23.563-3.291,23.563,12.946,3.622,23.332-.423l.072-21.8s.024-4.247-1.48-6.658c-2.2-3.526-4.323-4.275-4.323-4.275a15.836,15.836,0,0,1-5.592,1.22C435.281,77.708,434.935,77.352,434.935,77.352Z" transform="translate(-226.54 -39.863)" fill="#cfdb67"/>
        <path id="Path_2807" data-name="Path 2807" d="M461.193,219.285a12.653,12.653,0,0,1-3.661-.062c-.355-.082-.211.144-.961.759a4.953,4.953,0,0,1-2.013.576c-1.2.086-1.287-.082-1.662.432s0,1,.562,1.2a39.48,39.48,0,0,0,5.64.154c2.21,0,2.671-.509,2.551-1.561a3.454,3.454,0,0,0-.456-1.494Z" transform="translate(-240.251 -113.927)" fill="#502d22"/>
        <path id="Path_2808" data-name="Path 2808" d="M436.665,219.537a9.608,9.608,0,0,1-4.093-.187,6.79,6.79,0,0,1-.778.629,4.986,4.986,0,0,1-2.018.567c-1.2.086-1.283-.086-1.662.428s0,1,.552,1.2a13.433,13.433,0,0,0,5.765.663c2.176-.394,2.565-.961,2.45-2.032A6.479,6.479,0,0,0,436.665,219.537Z" transform="translate(-227.372 -114.002)" fill="#502d22"/>
        <path id="Path_2809" data-name="Path 2809" d="M445.212,79.974s-3.122,5.813-3.122,9.747,1.114,22.9,1.114,22.9,6.817.961,10.761,0a17.05,17.05,0,0,0,3.886-1.134s.173-19.59.072-24.644c-.154-7.739-5.054-9.454-5.054-9.454A14.479,14.479,0,0,1,445.212,79.974Z" transform="translate(-234.714 -40.237)" fill="#4717b7"/>
        <path id="Path_2810" data-name="Path 2810" d="M434.98,80.112a1.63,1.63,0,0,1-.207-2.022s-3.67,3.737-4.881,7c-.889,2.4-3.843,26.6-3.843,26.6a22.094,22.094,0,0,0,2.3.615s1.768-19.936,2.075-23.116C430.83,84.734,434.98,80.112,434.98,80.112Z" transform="translate(-226.379 -40.601)" fill="#4717b7"/>
        <path id="Path_2811" data-name="Path 2811" d="M455.269,95.33s-.163,10.972-.817,13.278-2.633,10.857-2.633,10.857,4.376,3.046,5.284,3.046c0,0,3.223-9.07,4.155-11.664,1.725-4.78.85-14.58.85-14.58Z" transform="translate(-239.769 -49.559)" fill="#3513a0"/>
        <path id="Path_2812" data-name="Path 2812" d="M437.962,151.995c-.48-2.565-.1-4.588.749-5.726a3.473,3.473,0,0,0,.576-2.128l-.072-3.392h-.053a.327.327,0,0,1-.226-.264l-.226-1.806c0-.149.029-.221.317-.346a3.81,3.81,0,0,1,1.792-.245c.168.034.283.053.317.2l.375,1.777a.332.332,0,0,1-.125.327l-.048.034.85,3.262a3.454,3.454,0,0,0,1.244,1.821c1.172.8,2.186,2.594,2.575,5.169s1.268,7.917.706,8.282c-1.922,1.225-6.192,1.59-7.028,1.163C439.091,159.8,438.438,154.555,437.962,151.995Z" transform="translate(-232.459 -71.766)" fill="#34ba74"/>
        <path id="Path_2813" data-name="Path 2813" d="M442.923,142.94a5.668,5.668,0,0,1-1.1.331,2.883,2.883,0,0,1-1.028,0l.029.312a4.577,4.577,0,0,0,1.071,0,4.933,4.933,0,0,0,1.1-.331l-.077-.307" transform="translate(-234.043 -74.298)" fill="#186e72"/>
        <path id="Path_2814" data-name="Path 2814" d="M440,138.673c0,.111.5.125,1.081.034s1.033-.259,1.014-.37-.48-.13-1.076-.034S440,138.562,440,138.673Z" transform="translate(-233.627 -71.856)" fill="#186e72"/>
        <path id="Path_2815" data-name="Path 2815" stroke="#f9f8f8" d="M440.966,155.92a4.011,4.011,0,0,0-1.076,3.026" fill="none" transform="translate(-233.57 -81.043)" stroke-linecap="round" stroke-linejoin="round" stroke-width="1.28" opacity="0.28"/>
        <path id="Path_2816" data-name="Path 2816" stroke="#f9f8f8" d="M445.038,182.71a6.285,6.285,0,0,1-2.618.11" fill="none" transform="translate(-234.885 -94.963)" stroke-linecap="round" stroke-linejoin="round" stroke-width="1.28" opacity="0.28"/>
        <path id="Path_2817" data-name="Path 2817" d="M446.236,145.147c-.226-2.594.336-4.568,1.292-5.625a3.454,3.454,0,0,0,.778-2.061l.255-3.387h-.053a.327.327,0,0,1-.2-.288l-.053-1.816c0-.154.053-.216.351-.312a3.843,3.843,0,0,1,1.806-.077c.163.053.279.082.3.231l.2,1.806a.331.331,0,0,1-.154.312l-.053.029.533,3.329a3.478,3.478,0,0,0,1.062,1.922c1.09.913,1.922,2.791,2.066,5.39s.48,8.008-.091,8.315c-2.022,1.038-6.312.99-7.1.48C446.611,153.026,446.462,147.741,446.236,145.147Z" transform="translate(-236.842 -68.358)" fill="#2fa866"/>
        <path id="Path_2818" data-name="Path 2818" d="M453.277,136.57a5.23,5.23,0,0,1-1.119.226,2.781,2.781,0,0,1-1.028-.091v.317a4.5,4.5,0,0,0,1.066.091,5.419,5.419,0,0,0,1.124-.226l-.043-.317" transform="translate(-239.411 -70.988)" fill="#186e72"/>
        <path id="Path_2819" data-name="Path 2819" d="M450.77,131.982c0,.11.48.173,1.071.135s1.057-.159,1.047-.269-.48-.178-1.071-.139S450.765,131.867,450.77,131.982Z" transform="translate(-239.224 -68.456)" fill="#186e72"/>
        <path id="Path_2820" data-name="Path 2820" stroke="#f9f8f8" d="M449.81,149.2a4,4,0,0,0-1.359,2.906" fill="none" transform="translate(-238.018 -77.551)" stroke-linecap="round" stroke-linejoin="round" stroke-width="1.28" opacity="0.28"/>
        <path id="Path_2821" data-name="Path 2821" stroke="#f9f8f8" d="M451.588,176.264a6.363,6.363,0,0,1-2.618-.144" fill="none" transform="translate(-238.288 -91.539)" stroke-linecap="round" stroke-linejoin="round" stroke-width="1.28" opacity="0.28"/>
        <path id="Path_2822" data-name="Path 2822" d="M450.834,151.22c.692-2.508,1.922-4.165,3.175-4.8a3.435,3.435,0,0,0,1.441-1.657l1.417-3.084-.038-.038a.327.327,0,0,1-.086-.336l.586-1.72c.048-.149.12-.187.437-.173a3.776,3.776,0,0,1,1.72.562c.134.1.231.168.2.317l-.442,1.763a.322.322,0,0,1-.255.235h-.053l-.663,3.31a3.454,3.454,0,0,0,.317,2.176c.706,1.239.836,3.291.058,5.765s-2.32,7.686-2.983,7.758c-2.258.269-6.245-1.273-6.826-2.022C448.437,158.747,450.137,153.742,450.834,151.22Z" transform="translate(-238.187 -72.461)" fill="#34ba74"/>
        <path id="Path_2823" data-name="Path 2823" d="M467.581,144.73a5.553,5.553,0,0,1-1.134-.178,2.82,2.82,0,0,1-.932-.442l-.106.3a4.485,4.485,0,0,0,.961.452,4.972,4.972,0,0,0,1.134.183l.072-.312" transform="translate(-246.831 -74.906)" fill="#186e72"/>
        <path id="Path_2824" data-name="Path 2824" d="M466.888,139.652c-.034.106.394.331.961.48s1.042.221,1.076.11-.394-.331-.961-.48S466.941,139.542,466.888,139.652Z" transform="translate(-247.598 -72.562)" fill="#186e72"/>
        <path id="Path_2825" data-name="Path 2825" stroke="#f9f8f8" d="M458.991,155.73a4.012,4.012,0,0,0-2.291,2.253" fill="none" transform="translate(-242.305 -80.944)" stroke-linecap="round" stroke-linejoin="round" stroke-width="1.28" opacity="0.28"/>
        <path id="Path_2826" data-name="Path 2826" stroke="#f9f8f8" d="M452.322,181.207a6.288,6.288,0,0,1-2.4-1.047" fill="none" transform="translate(-238.782 -93.638)" stroke-linecap="round" stroke-linejoin="round" stroke-width="1.28" opacity="0.28"/>
        <path id="Path_2827" data-name="Path 2827" d="M433.478,162.089c1.412-7.624,4.727-12.408,6.49-13.427s7.556-1.148,10.088,5.6c0,0,4.727,11.894,1.763,17.025s-8.291,6.543-12.581,4.064S432.066,169.693,433.478,162.089Zm7.138-8.2c.279,2.95,3.588,3.747,5.481,2.657s1.028-4.463,1.028-4.463c-.644-2.45-3.665-3.06-4.761-2.709C440.948,149.829,440.333,150.958,440.617,153.889Z" transform="translate(-230.05 -77.003)" fill="#e7e3d8"/>
        <path id="Path_2828" data-name="Path 2828" d="M456.864,84.053c-1.984.413-1.984,2.33-1.984,7.931v11.529l-2.777,10.6-1.311,2.272c-.48.817,1.922,3.127,3.214,1.825s5.025-12.97,5.025-12.97,2.258-10.842,2.258-13.489C461.279,89.515,460.467,83.3,456.864,84.053Z" transform="translate(-239.203 -43.667)" fill="#f8c295"/>
        <path id="Path_2829" data-name="Path 2829" d="M457.245,115.579c-1.672,1.3-3.675-1.83-3.675-1.83s2.325-11.193,2.4-11.841c.769-5.356-.384-16.074.312-17.294.812-1.412,3.872-1.806,4.919-.653,1.48,1.638,3.3,9.281,1.047,18.865C462.174,103.223,457.346,115.195,457.245,115.579Z" transform="translate(-240.679 -43.3)" fill="#4717b7"/>
      </g>
    </g>
  </g>
</svg>
