<svg id="Group_169" data-name="Group 169" xmlns="http://www.w3.org/2000/svg" xmlns:xlink="http://www.w3.org/1999/xlink" viewBox="0 0 60 60"><defs><style>.cls-1{fill:none;}.cls-2{fill:#f4c356;}.cls-3{clip-path:url(#clip-path);}.cls-4{fill:#f19c7c;}.cls-5{fill:#c47d66;}.cls-6{fill:#fdedee;}.cls-7{fill:#352c38;opacity:0.1;isolation:isolate;}.cls-8{fill:#6f96bd;}.cls-9{fill:#88bbe5;}.cls-10{fill:#fddec0;}.cls-11{fill:#d3b9a3;}.cls-12{fill:#fff;}</style><clipPath id="clip-path"><circle class="cls-1" cx="30" cy="30" r="30"/></clipPath></defs><title>person2 mask</title><circle id="Ellipse_29" data-name="Ellipse 29" class="cls-2" cx="30" cy="30" r="30"/><g class="cls-3"><g id="Mask_Group_3" data-name="Mask Group 3"><g id="Layer_2" data-name="Layer 2"><g id="OBJECTS"><path id="Path_340" data-name="Path 340" class="cls-4" d="M36.47,44.15c-2.48-1.35-1.8-7.89-1.8-7.89L31,36.5v-.24l-.4.12-.4-.12v.24l-3.71-.24s.67,6.53-1.8,7.89-17.12,2-15.54,17.11H52C53.59,46.17,39,45.5,36.47,44.15Z"/><path id="Path_341" data-name="Path 341" class="cls-5" d="M25.93,42.46q4.45-.66,8.89-1.37a19.53,19.53,0,0,1-.15-4.83L31,36.5v-.24l-.4.12-.4-.12v.24l-3.71-.24A16.85,16.85,0,0,1,25.93,42.46Z"/><path id="Path_342" data-name="Path 342" class="cls-6" d="M39.59,44.76a9.6,9.6,0,0,1-9,6,9.58,9.58,0,0,1-9-6c-5.09,1.4-14.07,4.38-12.81,16.5H52.4C53.66,49.16,44.69,46.17,39.59,44.76Z"/><path id="Path_343" data-name="Path 343" class="cls-7" d="M48.91,49.51c-5.47,3.54-12.08,4.93-18.22,6.89-5.75,1.83-11.57,3.42-17.45,4.86H52.39C53,55.62,51.35,52,48.91,49.51Z"/><path id="Path_344" data-name="Path 344" class="cls-8" d="M40.44,45V61.26h12C53.59,49.82,45.64,46.52,40.44,45Z"/><path id="Path_345" data-name="Path 345" class="cls-8" d="M20.58,45c-5.17,1.52-13,4.84-11.86,16.22H20.58Z"/><path id="Path_346" data-name="Path 346" class="cls-9" d="M20.73,45V61.26S14.74,51,15,47.53,20.15,43.84,20.73,45Z"/><path id="Path_347" data-name="Path 347" class="cls-9" d="M40.15,45V61.26s6-10.22,5.7-13.73S40.73,43.84,40.15,45Z"/><path id="Path_348" data-name="Path 348" class="cls-5" d="M23.31,26.7C22.58,24.43,20.85,25,20.68,25s-2,.29-1.65,2.62,1.7,3.69,3,3.3C23.35,30.74,24,29,23.31,26.7Z"/><path id="Path_349" data-name="Path 349" class="cls-5" d="M37.88,26.7c.73-2.27,2.46-1.75,2.63-1.68s2,.29,1.65,2.62-1.7,3.69-3,3.3C37.84,30.74,37.15,29,37.88,26.7Z"/><path id="Path_350" data-name="Path 350" class="cls-4" d="M21.54,23.27c.9-9.93,8.45-9.37,9.16-9.3s8.26-.63,9.17,9.3S36.33,39.78,30.7,39.42C25.08,39.78,20.63,33.26,21.54,23.27Z"/><path id="Path_351" data-name="Path 351" class="cls-10" d="M40.26,15.62c-.51-2-1.73-2.56-2.31-2.69-.34-5.25-14.36-6.21-14.54-5.2s5,2.82,5,2.82-9.25-2.43-8.76-.29c.39,1.75,4.13,1.55,5.52,1.42-2,.24-8.63,1.31-5.62,4.32a4.81,4.81,0,0,0,.79.64c-.29,3.73.83,12.5.83,12.5h.78l-.29-6c1.51-.3,2.2-3.88,2.43-5.48a17.82,17.82,0,0,0,6.08-1.19c-.59.27-1.48.88-.5,1.8s4.63-.2,6.43-.87c.33,1.42,1.41,5.41,3,5.72l-.3,6h.79S40.94,18.34,40.26,15.62Z"/><path id="Path_352" data-name="Path 352" class="cls-11" d="M40.26,15.62c-.51-2-1.73-2.56-2.31-2.69a3.53,3.53,0,0,0-1.39-2.46,10.55,10.55,0,0,1-6.34,8c1.42.34,4.31-.59,5.87-1.14.33,1.42,1.4,5.41,3,5.73l-.29,6h.77S40.94,18.34,40.26,15.62Z"/></g></g><path class="cls-12" d="M39,28.88c.14-.93.13-1.84-.42-2.1a2.67,2.67,0,0,0-.45-.22,9.13,9.13,0,0,0-1.88-.16c-1.31-.1-2.61-.19-3.92-.27-2.61-.16-5.23-.27-7.84-.26a5.84,5.84,0,0,0-1.62.18.43.43,0,0,0-.24.15,1.71,1.71,0,0,0-.11.75c0,.34,0,.7,0,1.05a18.61,18.61,0,0,0,.35,3.41A10.29,10.29,0,0,0,24,34.74c1.93,3.21,6.5,3.5,9.73,2.64S38,33.94,38.5,31C38.57,30.61,38.83,29.74,39,28.88Z"/><path class="cls-12" d="M25.07,28.65l-.06,0a27.48,27.48,0,0,1-4.27-3.4.12.12,0,0,1,.16-.17,26.55,26.55,0,0,0,4.24,3.38.12.12,0,0,1,0,.16A.12.12,0,0,1,25.07,28.65Z"/><path class="cls-12" d="M23.8,32.8a.1.1,0,0,1-.08,0,3.33,3.33,0,0,0-.77-.69,4.57,4.57,0,0,1-.54-.45A2.82,2.82,0,0,1,22,31a.11.11,0,0,1,0-.15.12.12,0,0,1,.16,0,2.36,2.36,0,0,0,.4.54,4.24,4.24,0,0,0,.51.42,3.57,3.57,0,0,1,.82.75.1.1,0,0,1,0,.15A.1.1,0,0,1,23.8,32.8Z"/><path class="cls-12" d="M37.47,29.53a.12.12,0,0,1-.1,0,.11.11,0,0,1,0-.16A23.89,23.89,0,0,0,40,25a.12.12,0,0,1,.15-.06.11.11,0,0,1,0,.15,23.42,23.42,0,0,1-2.66,4.4S37.49,29.52,37.47,29.53Z"/><path class="cls-12" d="M37.85,32.89h-.07a.12.12,0,0,1-.06-.15,3.39,3.39,0,0,1,.73-.84,6.3,6.3,0,0,0,.46-.48,3,3,0,0,0,.33-.58.11.11,0,0,1,.15-.06.12.12,0,0,1,.06.15,3.46,3.46,0,0,1-.36.62,6.9,6.9,0,0,1-.48.51,3.5,3.5,0,0,0-.68.77S37.88,32.89,37.85,32.89Z"/></g></g></svg>